# xmcd
#
# Track frame offsets:
#	150
#	13727
#	26482
#	36668
#	47664
#
# Disc length: 824 seconds
#
# Revision: 0
# Processed by: cddbd v1.5.2PL0 Copyright (c) Steve Scherf et al.
# Submitted via: EasyCDDAExtractor 9.0.0.1
#
DISCID=3b033605
DTITLE=Scopitones - Polvo de Estrellas
DYEAR=2012
DGENRE=Surf
TTITLE0=Por la costa
TTITLE1=En el Bar de Jo
TTITLE2=Polvo de Estrellas
TTITLE3=Golpe de Suerte
TTITLE4=¡Guacamole!
EXTD=
EXTT0=
EXTT1=
EXTT2=
EXTT3=
EXTT4=
PLAYORDER=
